<?xml version="1.0" encoding="utf-8"?>
<!-- Generator: Adobe Illustrator 19.2.1, SVG Export Plug-In . SVG Version: 6.00 Build 0)  -->
<svg version="1.1" id="Слой_1" xmlns="http://www.w3.org/2000/svg" xmlns:xlink="http://www.w3.org/1999/xlink" x="0px" y="0px"
	 viewBox="0 0 74.8 77.1" style="enable-background:new 0 0 74.8 77.1;" xml:space="preserve">
<style type="text/css">
	.st0{fill:#FCFCFC;}
	.st1{fill:#F4F4F4;}
	.st2{fill:#FFFFFF;}
</style>
<path class="st0" d="M19.6,36.1l28.1-0.8l0,0c0-0.9,0-1.8-0.2-2.7c-0.3-1.7-0.2-2.8-0.7-2.8l-35.8-1.8l0,0
	C11.1,30.9,14.9,36.3,19.6,36.1L19.6,36.1z"/>
<path class="st1" d="M32,41.6c-0.9,2-2,3.9-3.6,5.5c-0.1,0.2-0.2,0.4-0.4,0.6c0.1,0.7,1.8,2.1,3.7,3.3c-2.5,4.7-1.4,6.7,2.6,9.4
	c-2.3,2.8-5.4,4.2-10.7,2.6c-4.1-1.2-3.9-2.4-6-2.1c-0.9,0.1-3.8,3.9-3.6,5.1c0.7,4.2,17.4,13.7,28-0.5c0.8-1.1,1.7-2.3,2.6-3.6
	c0.2-0.2,0.3-0.5,0.5-0.7C56.6,60,53.9,74.2,56,76.6c0.5,0.6,5.7,0.6,6.6-0.3c1-1,1.8-3.7,1.7-6.4c-0.5-12-6-17.2-14.5-18.2
	c0.6-1.3,1.3-3.1,1.3-3.1c0.4-0.9,1.3-2.7,2.3-4.7c6,4.2,13.3,5.3,20.2-2.2c1.8-1.9-0.2-5.1-3.3-3.4c-2.6,1.5-5,1.8-7.1,1.3
	c-5.5-1.4-5-7.7-13.3-10.4c-3.9-1.3-7.8-1.7-11-0.7c-2.8,0.8-5.1,2.7-6.4,4.8C31.2,35.6,30.1,38.5,32,41.6L32,41.6z"/>
<path class="st1" d="M36.8,44c7.4,7,18.1,10.9,26.3,0.1c1.6-2.1-0.8-5-3.7-2.9c-5.2,3.7-10.6,0.7-13.1-2.6c-0.3,0.1-0.7,0.3-1.1,0.5
	c-3.1,1.9-4.2,2.7-7.6,4.4C37.3,43.7,37.1,43.9,36.8,44L36.8,44z"/>
<path class="st1" d="M45.2,10.2c4.4-3.6,6.8-7.8,6.4-8.4c-0.5-0.8-1.1-1.2-1.7-1.9c-0.3-0.4-2.4,4.4-6.4,6.6
	c-0.2-0.3-3.3-4.8-3.3-4.8C37.8,1.4,25,10.4,24,12.1c0.3,1.9,2.5,5.5,4.9,9.3l0.1-0.1c2.2,4.2,7.6,5.7,12.2,3.3
	c4.8-2.5,7-8.3,5-12.9C45.9,11.2,45.6,10.7,45.2,10.2L45.2,10.2z"/>
<path class="st0" d="M39.3,6.6c0.5,0.8,1,1.5,0.8,1.6c-0.2,0.1-1.7,1.2-2.2,1.5c-0.7,0.4-3,2.1-3.2,2.1c-0.4,0.1-0.5-0.3-1.3-1.4
	c-0.7-0.9-0.8-1.4-0.6-1.8c0.3-0.4,3.2-2.2,4.4-2.9C38.5,5,38,4.8,39.3,6.6L39.3,6.6z"/>
<path class="st1" d="M53.8,47.9C53.8,47.9,53.8,47.9,53.8,47.9c-1.1,0.2-13.9,0.4-13.9,0.3c-1.4-5.5-1.7-13.6-1.3-19.2
	c0-0.4,16.1-5.2,17.7-5.7h0c1.7-0.8,10.5-1.4,14.1-1.5c1.6,0,2.8,0,2.9,0.1c0.8,1.4,1.9,12.9,1.4,18c-0.3,2.6-0.6,2.3-3,3L53.8,47.9
	L53.8,47.9L53.8,47.9z"/>
<path class="st0" d="M71.6,40c-1,0.3-14.5,4-14.8,3.5c-0.2-0.3-0.5-11.2-1-14.8c0.2-0.5,14.9-4.1,15-3.7
	C71.1,28.6,72.2,36.8,71.6,40L71.6,40z"/>
<path class="st0" d="M51.8,29.7c-0.6-0.5-9.5,0.4-10.2,1c-0.9,0.8,0.3,13.6,0.7,14.2c0.4,0.6,9.8,0,10.2-0.3
	c0.3-0.3,0.2-2.9,0.1-5.6C52.3,34.9,52.1,29.9,51.8,29.7L51.8,29.7z"/>
<path class="st1" d="M47.4,28.4c0.1,2.2,0.7,8.3,0.7,10.3c0,0.7-0.3,0.7-1.3,0.7c-2,0-1.8,0.7-1.8-0.8c-0.1-2.2-0.1-5.5-0.2-8
	c-0.1-1.9,0.5-1.9,2.2-2.1C47.4,28.5,47.4,27.9,47.4,28.4L47.4,28.4z"/>
<path class="st1" d="M73.3,39.9c0-1.3-0.2-2.6-0.6-4c-0.6-2.4-4.6-1.9-4.9,1.5c-0.2,2.7-1.3,4.9-2.9,6.5
	C67.7,43.6,70.9,42,73.3,39.9L73.3,39.9z"/>
<path class="st1" d="M61.3,43.2c0.3-1.3,0.4-2.6,0.3-4.1c-0.1-2.5-4-2.9-5,0.5c-0.8,2.7-2.3,4.6-4.2,5.9
	C55,45.7,58.5,44.8,61.3,43.2L61.3,43.2z"/>
<path class="st2" d="M42.4,12c0.4,0.5,0.7,1,1,1.6c1.1,2.9-0.3,6.2-3.1,7.8l-4.1-5.7L42.4,12L42.4,12z"/>
<path class="st0" d="M8.6,46.1l40.2-1.3l0,0c0-0.9,0-1.8-0.2-2.7c-0.3-1.7-0.2-2.8-0.7-2.8L0,38.1l0,0C0,40.9,3.9,46.3,8.6,46.1
	L8.6,46.1z"/>
<path class="st2" d="M65,29.1c0.4,0.9,0.6,2.9,0.5,3.8c0.4,0,3.2-0.6,3.2-0.9c0-0.7,0-3.7-0.4-3.9C67.7,27.9,64.7,28.5,65,29.1
	L65,29.1z"/>
</svg>
