<svg xmlns="http://www.w3.org/2000/svg" viewBox="0 0 93.54 14.12"><defs><style>.cls-1{fill:#311b94;}</style></defs><title>Ресурс 1</title><g id="Слой_2" data-name="Слой 2"><g id="Слой_1-2" data-name="Слой 1"><path class="cls-1" d="M10.78,3.57A5.35,5.35,0,0,0,11.3.31H.61A4.79,4.79,0,0,0,.09,3.57H3.7L2.07,13.92H5.54L7.18,3.57ZM17.86.33a8.3,8.3,0,0,0-3.13,0L7.84,13.92a11.47,11.47,0,0,0,3.69,0l1.27-2.73h3.63l.45,2.73a10.9,10.9,0,0,0,3.69,0L17.86.33ZM14.05,8.14l1.63-4h.1l.31,4ZM26.28,5.36l.79-5a7.93,7.93,0,0,0-3.45,0L21.47,13.92a7.6,7.6,0,0,0,3.45,0l.74-4.7.14-.15,2.71,4.86c1.5,0,3,0,4.36,0l-4.24-7L35,.33c-1.33,0-2.76,0-4.28,0l-4.48,5Zm12.59-1.8h6A4.46,4.46,0,0,0,45.36.33H35.9L33.75,13.92h9.46a5.24,5.24,0,0,0,.51-3.24h-6l.32-2h5.51a4.71,4.71,0,0,0,.47-3H38.53l.33-2.11ZM51.65.37a8.86,8.86,0,0,0-3.88,0,14.26,14.26,0,0,0-1.74,4,5,5,0,0,0,3,0,19.75,19.75,0,0,0,2.6-4Zm-.87,13.55a10,10,0,0,0,3.44,0l.86-5.43q0-1.31,0-2.63l.1,0,.76,2.73,2.22,5.35a9.67,9.67,0,0,0,3.47,0L63.75.33a4.57,4.57,0,0,0-3.42,0l-1,6.16s0,2.34,0,2.34l-.1,0-.72-2.73L56.19.33a6.55,6.55,0,0,0-3.26,0L50.78,13.92ZM70.36.37a6.13,6.13,0,0,0-3.88,0,11.57,11.57,0,0,0-1.74,4,4.14,4.14,0,0,0,3,0,12.57,12.57,0,0,0,2.6-4ZM80.61,3A4.07,4.07,0,0,0,76.35.14c-2.69,0-5.62,1.54-6.1,4.61l-.74,4.66c-.49,3.13,1.94,4.7,4.63,4.7s5.58-1.57,6.08-4.7L80.75,6H75.28a4.28,4.28,0,0,0-.45,2.88H77l-.08.5c-.33,2.11-4.31,2.13-4,0l.74-4.66C74,3,77.06,2.54,77.52,4.36L80.61,3Zm.87,6.41c-.49,3.11,2.08,4.66,4.91,4.66s5.87-1.55,6.36-4.66l.73-4.64C94,1.69,91.4.14,88.57.14S82.71,1.67,82.21,4.8l-.73,4.64ZM85.65,4.8C85.81,3.8,87,3.27,88,3.27s2.17.48,2,1.54l-.73,4.64c-.15,1-1.33,1.48-2.42,1.48s-2.13-.48-2-1.48l.73-4.64Z"/></g></g></svg>