<?xml version="1.0" encoding="utf-8"?>
<!-- Generator: Adobe Illustrator 21.1.0, SVG Export Plug-In . SVG Version: 6.00 Build 0)  -->
<svg version="1.1" id="Слой_1" xmlns="http://www.w3.org/2000/svg" xmlns:xlink="http://www.w3.org/1999/xlink" x="0px" y="0px"
	 viewBox="0 0 537 177.8" style="enable-background:new 0 0 537 177.8;" xml:space="preserve">
<style type="text/css">
	.st0{fill-rule:evenodd;clip-rule:evenodd;fill:#3155A2;}
	.st1{fill-rule:evenodd;clip-rule:evenodd;fill:#305398;}
	.st2{fill-rule:evenodd;clip-rule:evenodd;fill:#FFFFFF;}
	.st3{fill:#FFFFFF;}
	.st4{fill:#3155A2;}
</style>
<path class="st0" d="M0,33.8V144c0,16.6,15.2,33.8,32,33.8h467.6c19.3,0,37.3-18.1,37.3-32V32c0-13.9-18-32-37.3-32H32
	C15.1,0,0,16.8,0,33.8"/>
<polygon class="st1" points="54.7,103 77.7,103.1 72,69.8 "/>
<path class="st2" d="M500.9,174.5c17.2-2.4,32.2-18.2,32.2-30.6v-110c0-13.4-17.7-30.9-36.6-30.9H344.7v171.6H500.9z"/>
<g>
	<path class="st3" d="M95.6,138.4c-0.2-4-0.4-8-0.7-11.9c-0.3-3.9-0.5-7.7-0.9-11.5H53.7c-2.1,3.8-4.2,7.7-6.5,11.5
		c-2.3,3.9-4.4,7.8-6.5,11.9H15.4c6.7-11.6,13-22.3,18.8-32.1c5.8-9.8,11.5-19.1,16.9-27.7c5.4-8.7,10.7-16.9,15.9-24.7
		C72.2,46,77.5,38.4,82.9,31h21.5c1.7,7.4,3.2,15.7,4.7,24.7c1.5,9,2.9,18.3,4.2,27.7c1.3,9.5,2.5,18.9,3.6,28.4s2.1,18.3,3,26.6
		H95.6z M88.4,54.5c-4.3,6.9-8.6,13.8-12.8,20.6c-4.2,6.8-8.2,13.8-12.2,20.9h29c-0.5-6.3-1.1-13-1.6-20.2
		C90.3,68.8,89.5,61.6,88.4,54.5z"/>
	<path class="st3" d="M212,133.7c-4.2,2.1-8.9,3.7-14.1,5c-5.2,1.2-11.5,1.9-18.9,1.9c-6.4,0-12.3-1.1-17.6-3.2
		c-5.3-2.1-9.9-5.1-13.6-9.1c-3.8-3.9-6.7-8.7-8.8-14.3c-2.1-5.6-3.1-12-3.1-19c0-8.1,1.4-16.1,4.3-24c2.8-8,7-15.1,12.6-21.3
		c5.5-6.3,12.3-11.3,20.3-15.3c8-3.9,17.2-5.9,27.7-5.9c5,0,9.8,0.6,14.6,1.7c4.8,1.1,9.8,3.2,15.1,6L221.7,55
		c-4.3-2.3-8.2-3.8-11.6-4.6c-3.4-0.8-7.1-1.2-11-1.2c-5.9,0-11.2,1.2-15.9,3.6c-4.7,2.4-8.7,5.6-12.1,9.7
		c-3.4,4.1-5.9,8.8-7.7,14.2c-1.8,5.4-2.6,11.1-2.6,17.1c0,9.1,2,15.7,6,19.8c4,4.1,9.7,6.2,17.1,6.2c5,0,9.5-0.5,13.7-1.5
		c4.2-1,8.1-2.4,11.7-4L212,133.7z"/>
	<path class="st3" d="M307.8,133.7c-4.2,2.1-8.9,3.7-14.1,5c-5.2,1.2-11.5,1.9-18.9,1.9c-6.4,0-12.3-1.1-17.6-3.2
		c-5.3-2.1-9.9-5.1-13.6-9.1c-3.8-3.9-6.7-8.7-8.8-14.3c-2.1-5.6-3.1-12-3.1-19c0-8.1,1.4-16.1,4.3-24c2.8-8,7-15.1,12.6-21.3
		c5.5-6.3,12.3-11.3,20.3-15.3c8-3.9,17.2-5.9,27.7-5.9c5,0,9.8,0.6,14.6,1.7c4.8,1.1,9.8,3.2,15.1,6L317.5,55
		c-4.3-2.3-8.2-3.8-11.6-4.6c-3.4-0.8-7.1-1.2-11-1.2c-5.9,0-11.2,1.2-15.9,3.6c-4.7,2.4-8.7,5.6-12.1,9.7
		c-3.4,4.1-5.9,8.8-7.7,14.2c-1.8,5.4-2.6,11.1-2.6,17.1c0,9.1,2,15.7,6,19.8c4,4.1,9.7,6.2,17.1,6.2c5,0,9.5-0.5,13.7-1.5
		c4.2-1,8.1-2.4,11.7-4L307.8,133.7z"/>
</g>
<g>
	<g>
		<path class="st4" d="M371.5,28.5h26.9v119.3h-26.9V28.5z"/>
		<path class="st4" d="M514.4,28.5v22.9h-36v96.4h-26.9V51.4h-36V28.5H514.4z"/>
	</g>
</g>
</svg>
