<svg id="Artwork" xmlns="http://www.w3.org/2000/svg" viewBox="0 0 1190.6 841.9"><style>.st0{fill:#003f1c}.st1{fill:url(#SVGID_1_)}.st2{fill:#010202}.st3{fill:#ab8225;fill-opacity:.8}.st4{fill:#92701f}.st5{fill:url(#SVGID_2_)}.st6{fill:url(#SVGID_3_)}.st7{fill:url(#SVGID_4_)}.st8{fill:url(#SVGID_5_)}.st9{fill:url(#SVGID_6_)}.st10{fill:url(#SVGID_7_)}.st11{fill:url(#SVGID_8_)}.st12{fill:url(#SVGID_9_)}</style><path class="st0" d="M1027.2 483H164l-40.4-284.7h353.7l120 15.7 117-15.7h353.3z"/><linearGradient id="SVGID_1_" gradientUnits="userSpaceOnUse" x1="33.334" y1="505.29" x2="1154.927" y2="505.29" gradientTransform="matrix(1 0 0 -1 0 843.29)"><stop offset="0" stop-color="#c3a136"/><stop offset=".085" stop-color="#c3a136"/><stop offset=".239" stop-color="#edd6a0"/><stop offset=".291" stop-color="#ebd49d"/><stop offset=".334" stop-color="#e7cf92"/><stop offset=".374" stop-color="#e1c681"/><stop offset=".412" stop-color="#d7b967"/><stop offset=".448" stop-color="#caa947"/><stop offset=".464" stop-color="#c3a136"/><stop offset=".974" stop-color="#c3a136"/><stop offset="1" stop-color="#c3a136"/></linearGradient><path class="st1" d="M697.3 262.1l16.9-63.8c-8.5-7.7-18.1-14.3-29.3-19.9-2.4 20.7-24.2 28.8-45.9 20.4-19.5-7.5-21.5-19.8-21.5-28.8 0-6.6 3.9-14.9 11.7-19.9l-33.9-26.8-33.1 26.8c7.8 5 11.7 13.3 11.7 19.9 0 9.1-2.1 21.3-21.5 28.8-21.6 8.4-43.5.2-45.9-20.4-11.7 5.8-20.7 11.9-29.4 19.9l16.8 63.8H123.6L164 552.7h863.2l40.4-290.6H697.3z"/><path d="M833.7 402.8c4.9-.7 31.6-4.2 31.6-33.4 0-33.8-44.8-32.9-57.3-32.9h-52.1v.3c4 4 5.3 13.5 5.3 21.2v100.5c0 7.7-1.6 17.3-5.2 21.1v.3h66c15.9 0 51.1-6.4 51.1-38.9-.2-29.6-24.8-35.8-39.4-38.2zm-22.2 61.4c-10.6 0-17.9-3.2-17.9-3.2V352.1h15.3c10.1 0 23 4 23 19.7 0 19.9-14.2 26.5-22.4 26.5h-3.9l-3.5 13.2c20.4 0 35.3 5.9 35.3 27.8-.1 21.1-14.7 24.9-25.9 24.9zm-479.3 16.1v-.3c-2.3-4.9-.4-12.8 3.4-21.5l5.9-14.4h53.2l14.9 36.2h40.9v-.3c-5.4-3.5-10.9-14.4-14.6-23.3l-51-120.2h-20.3l-61.1 143.9 28.7-.1zm15.5-51.5l20.3-49.3 20.4 49.3h-40.7zm-135.2-91.7V352h43.9v73.6c0 45.9-24.7 69.4-55.5 69.8l-6.2.1 3.5 12.8h8c55.1-1.7 85.7-37.3 85.7-98.7v-72.4h-79.4v-.1zm449.8-3.5c-41.6 0-75.2 26.4-75.2 74.9 0 50.5 33.7 74.3 75.2 74.3 41.6 0 75.2-25.6 75.2-74.7 0-48.8-33.6-74.5-75.2-74.5zm-.1 133.6c-25.1 0-37.4-22.4-37.4-59 0-36.4 13.9-59 37.6-59 25.3 0 37.6 22.3 37.6 59 0 36.3-13.3 59-37.8 59zm331.4-24.4c1.5-18.8-4.5-31.9-40-49.5-25.8-12.7-32.9-16-31.4-29.4.9-7.7 8.7-14.6 24.4-14.6 15.8 0 31.5 7.9 37 18.5h.3l6-22.5c-12.6-7.6-26.1-11.2-43.9-11.2-28.2 0-52.9 15.4-52.9 41.2 0 24.7 16.9 33 37.1 43.1 19.1 9.5 30.4 15.7 28.6 30.8-1.5 12.7-12.4 17.6-24.6 17.6-15 0-30.1-6.6-37.3-18h-.4l-5.8 22.4c13.3 8.3 27.9 11.3 44.1 11.3 17.4.1 56-5.2 58.8-39.7zm-506.1-34.4c0 32.8 16 56.5 45.6 56.6 15.1 0 29.7-5.9 35.2-15.6h.3l6 22.5c-12.6 7.6-28.8 11.1-47.1 11.1-40.8 0-77.7-27-77.7-74.6s36.9-74.4 77.7-74.4c18.3 0 34.4 3.5 47.1 11.1l-6 22.5h-.3c-5.7-9.8-20.1-15.6-35.2-15.6-29.6.1-45.6 23.6-45.6 56.4z"/><path d="M487.5 408.4c0 32.8 16 56.5 45.6 56.6 15.1 0 29.7-5.9 35.2-15.6h.3l6 22.5c-12.6 7.6-28.8 11.1-47.1 11.1-40.8 0-77.7-27-77.7-74.6s36.9-74.4 77.7-74.4c18.3 0 34.4 3.5 47.1 11.1l-6 22.5h-.3c-5.7-9.8-20.1-15.6-35.2-15.6-29.6.1-45.6 23.6-45.6 56.4z"/><path class="st2" d="M741.1 224.6l-3.5.9-1-3.6 5.9-1.7h3V240h-4.4zm10.6 10.1c0-2.4 1.1-3.8 3.3-4.8-1.6-.9-2.6-2.2-2.6-4.3v-.1c0-3 2.8-5.4 7.1-5.4s7.2 2.4 7.2 5.4v.1c0 2.1-1 3.4-2.6 4.3 2.1 1 3.3 2.3 3.3 4.6v.1c0 3.6-3.3 5.8-7.8 5.8-4.6-.1-7.9-2.3-7.9-5.7m11.3-.4c0-1.6-1.5-2.5-3.5-2.5s-3.5.9-3.5 2.4v.1c0 1.3 1.3 2.4 3.5 2.4 2.2.1 3.5-1 3.5-2.4m-.6-8.3c0-1.3-1.1-2.4-2.9-2.4-1.8 0-2.9 1.1-2.9 2.3v.1c0 1.4 1.1 2.4 2.9 2.4 1.8 0 2.9-1 2.9-2.4m10.4 12.1l2.4-3.3c1.5 1.1 2.7 1.7 4.4 1.7 2.5 0 3.8-1.8 4.1-4.5-1 .8-2.4 1.3-4.1 1.3-4.4 0-7.3-2.4-7.3-6.3v-.1c0-4 3.2-6.9 7.8-6.9 2.7 0 4.3.6 5.9 2.1 1.5 1.4 2.4 3.5 2.4 7.4v.1c0 6.4-3.1 10.7-8.9 10.7-3 .1-5-.9-6.7-2.2m11-11.3c0-1.8-1.3-3.1-3.6-3.1-2.2 0-3.5 1.2-3.5 3v.1c0 1.7 1.3 3 3.5 3 2.3-.1 3.6-1.3 3.6-3m9.4 10.6l2.7-3.1c1.5 1.3 3.1 2.1 4.9 2.1 2.1 0 3.4-1 3.4-2.7v-.1c0-1.7-1.5-2.7-3.6-2.7-1.3 0-2.4.3-3.4.7l-2.6-1.7.6-9.7h12.5v3.8H799l-.2 3.4c.8-.2 1.5-.3 2.7-.3 4 0 7.1 1.9 7.1 6.3v.1c0 4.2-3 6.8-7.7 6.8-3.3.1-5.7-1-7.7-2.9m-411.2-17h14.8v3.8h-10.5v4h9.2v3.9h-9.2v4.1h10.6v3.8H382zm19.5 16.8l2.6-3.1c1.8 1.5 3.6 2.4 5.9 2.4 1.8 0 2.8-.7 2.8-1.9v-.1c0-1.1-.7-1.7-4-2.5-4-1-6.5-2.1-6.5-6 0-3.6 2.9-5.9 6.9-5.9 2.9 0 5.3.9 7.3 2.5l-2.2 3.3c-1.7-1.2-3.5-1.9-5.1-1.9-1.7 0-2.5.8-2.5 1.7v.1c0 1.3.8 1.7 4.2 2.6 4 1 6.2 2.5 6.2 5.9v.1c0 3.9-3 6.1-7.2 6.1-3-.2-6-1.2-8.4-3.3m24.9-12.8h-6v-4h16.3v4h-6V240h-4.3zm15.1-4h7.7c6.2 0 10.4 4.2 10.4 9.8v.1c0 5.5-4.3 9.8-10.4 9.8h-7.7v-19.7zm7.7 15.7c3.5 0 5.9-2.4 5.9-5.9v-.1c0-3.5-2.4-5.9-5.9-5.9h-3.3v11.9h3.3z"/><path class="st3" d="M595.3 219.8c-51.6 0-93.4 20.8-93.4 46.5s41.8 46.5 93.4 46.5 93.4-20.8 93.4-46.5c0-26.3-41.9-46.5-93.4-46.5zm81.4 39.9c-4.5 10.2-25.7 28.2-76.5 15.5l-10.5-2.7c-45.3-12-64.1-3.6-73.4 3.6-.8.6-1.6 1.1-2.4.7-.6-.3-.6-1.2-.1-2.3 4.5-10.2 27.8-29.2 78.7-16.5l10.5 2.6c46.9 11.9 61.9 4.7 71.2-2.5.8-.6 1.6-1.2 2.4-.7.6.4.6 1.2.1 2.3z"/><path class="st4" d="M595.7 228.3c49.4 0 89.8 15.9 93 39.2.1-1 0-2.3 0-3.3-1.8-24-41.2-44.4-92.9-44.4-53.1 0-92.6 21.1-93.8 45.3 0 1 0 2.9.1 3.9 3-23.4 44.1-40.7 93.6-40.7z"/><linearGradient id="SVGID_2_" gradientUnits="userSpaceOnUse" x1="282.08" y1="668.155" x2="928.478" y2="668.155"><stop offset="0" stop-color="#c3a136"/><stop offset=".085" stop-color="#c3a136"/><stop offset=".239" stop-color="#edd6a0"/><stop offset=".289" stop-color="#ecd49d"/><stop offset=".332" stop-color="#e8cf92"/><stop offset=".371" stop-color="#e1c681"/><stop offset=".409" stop-color="#d7ba68"/><stop offset=".445" stop-color="#cbab49"/><stop offset=".464" stop-color="#c3a136"/><stop offset="1" stop-color="#c3a136"/></linearGradient><path class="st5" d="M342.7 640.4h11.2l23.6 55.5h-12.7l-5-12.3h-23.3l-5 12.3h-12.4l23.6-55.5zm12.7 32.4l-7.3-17.9-7.3 17.9h14.6z"/><linearGradient id="SVGID_3_" gradientUnits="userSpaceOnUse" x1="282.085" y1="668.35" x2="928.497" y2="668.35"><stop offset="0" stop-color="#c3a136"/><stop offset=".085" stop-color="#c3a136"/><stop offset=".239" stop-color="#edd6a0"/><stop offset=".289" stop-color="#ecd49d"/><stop offset=".332" stop-color="#e8cf92"/><stop offset=".371" stop-color="#e1c681"/><stop offset=".409" stop-color="#d7ba68"/><stop offset=".445" stop-color="#cbab49"/><stop offset=".464" stop-color="#c3a136"/><stop offset="1" stop-color="#c3a136"/></linearGradient><path class="st6" d="M397.8 640.8h22.5c13.1 0 21.1 7.8 21.1 19.2 0 12.7-9.9 19.4-22.3 19.4h-9.2v16.5h-12.1v-55.1zm21.7 27.8c6.1 0 9.6-3.6 9.6-8.5 0-5.4-3.8-8.3-9.8-8.3h-9.4v16.8h9.6z"/><linearGradient id="SVGID_4_" gradientUnits="userSpaceOnUse" x1="282.073" y1="668.35" x2="928.532" y2="668.35"><stop offset="0" stop-color="#c3a136"/><stop offset=".085" stop-color="#c3a136"/><stop offset=".239" stop-color="#edd6a0"/><stop offset=".289" stop-color="#ecd49d"/><stop offset=".332" stop-color="#e8cf92"/><stop offset=".371" stop-color="#e1c681"/><stop offset=".409" stop-color="#d7ba68"/><stop offset=".445" stop-color="#cbab49"/><stop offset=".464" stop-color="#c3a136"/><stop offset="1" stop-color="#c3a136"/></linearGradient><path class="st7" d="M459.7 668.3c0-15.7 12.4-28.5 29.4-28.5s29.2 12.7 29.2 28.5c0 15.7-12.4 28.5-29.4 28.5s-29.2-12.6-29.2-28.5zm45.9 0c0-9.4-6.9-17.3-16.7-17.3-9.8 0-16.5 7.7-16.5 17.3 0 9.4 6.9 17.3 16.7 17.3 9.7.1 16.5-7.6 16.5-17.3z"/><linearGradient id="SVGID_5_" gradientUnits="userSpaceOnUse" x1="282.075" y1="668.35" x2="928.527" y2="668.35"><stop offset="0" stop-color="#c3a136"/><stop offset=".085" stop-color="#c3a136"/><stop offset=".239" stop-color="#edd6a0"/><stop offset=".289" stop-color="#ecd49d"/><stop offset=".332" stop-color="#e8cf92"/><stop offset=".371" stop-color="#e1c681"/><stop offset=".409" stop-color="#d7ba68"/><stop offset=".445" stop-color="#cbab49"/><stop offset=".464" stop-color="#c3a136"/><stop offset="1" stop-color="#c3a136"/></linearGradient><path class="st8" d="M540.9 640.8H554l14.5 23.3 14.5-23.3h13v55.1h-12v-36l-15.5 23.5h-.3l-15.3-23.3v35.7H541v-55z"/><linearGradient id="SVGID_6_" gradientUnits="userSpaceOnUse" x1="282.073" y1="668.155" x2="928.528" y2="668.155"><stop offset="0" stop-color="#c3a136"/><stop offset=".085" stop-color="#c3a136"/><stop offset=".239" stop-color="#edd6a0"/><stop offset=".289" stop-color="#ecd49d"/><stop offset=".332" stop-color="#e8cf92"/><stop offset=".371" stop-color="#e1c681"/><stop offset=".409" stop-color="#d7ba68"/><stop offset=".445" stop-color="#cbab49"/><stop offset=".464" stop-color="#c3a136"/><stop offset="1" stop-color="#c3a136"/></linearGradient><path class="st9" d="M639.9 640.4h11.2l23.6 55.5H662l-5-12.3h-23.3l-5 12.3h-12.4l23.6-55.5zm12.7 32.4l-7.3-17.9-7.3 17.9h14.6z"/><linearGradient id="SVGID_7_" gradientUnits="userSpaceOnUse" x1="282.069" y1="668.35" x2="928.53" y2="668.35"><stop offset="0" stop-color="#c3a136"/><stop offset=".085" stop-color="#c3a136"/><stop offset=".239" stop-color="#edd6a0"/><stop offset=".289" stop-color="#ecd49d"/><stop offset=".332" stop-color="#e8cf92"/><stop offset=".371" stop-color="#e1c681"/><stop offset=".409" stop-color="#d7ba68"/><stop offset=".445" stop-color="#cbab49"/><stop offset=".464" stop-color="#c3a136"/><stop offset="1" stop-color="#c3a136"/></linearGradient><path class="st10" d="M707.1 695.9H695v-55.1h38.5v10.9h-26.4v44.2z"/><linearGradient id="SVGID_8_" gradientUnits="userSpaceOnUse" x1="282.07" y1="668.35" x2="928.531" y2="668.35"><stop offset="0" stop-color="#c3a136"/><stop offset=".085" stop-color="#c3a136"/><stop offset=".239" stop-color="#edd6a0"/><stop offset=".289" stop-color="#ecd49d"/><stop offset=".332" stop-color="#e8cf92"/><stop offset=".371" stop-color="#e1c681"/><stop offset=".409" stop-color="#d7ba68"/><stop offset=".445" stop-color="#cbab49"/><stop offset=".464" stop-color="#c3a136"/><stop offset="1" stop-color="#c3a136"/></linearGradient><path class="st11" d="M801.3 695.9h-12v-36.1l-24.1 36.1h-11.4v-55.1h12v36.1l24.2-36.1h11.3v55.1z"/><linearGradient id="SVGID_9_" gradientUnits="userSpaceOnUse" x1="282.074" y1="668.35" x2="928.532" y2="668.35"><stop offset="0" stop-color="#c3a136"/><stop offset=".085" stop-color="#c3a136"/><stop offset=".239" stop-color="#edd6a0"/><stop offset=".289" stop-color="#ecd49d"/><stop offset=".332" stop-color="#e8cf92"/><stop offset=".371" stop-color="#e1c681"/><stop offset=".409" stop-color="#d7ba68"/><stop offset=".445" stop-color="#cbab49"/><stop offset=".464" stop-color="#c3a136"/><stop offset="1" stop-color="#c3a136"/></linearGradient><path class="st12" d="M869.9 695.9h-12.1v-17.6h-9.5l-11.8 17.6h-14.2l13.5-19.7c-7-2.6-11.8-8.2-11.8-17.2 0-11.4 7.9-18.2 20.8-18.2H870v55.1zm-12.1-28.3v-15.8h-12c-5.9 0-9.5 2.7-9.5 8 0 4.6 3.4 7.8 9.3 7.8h12.2z"/></svg>