<svg xmlns="http://www.w3.org/2000/svg" xmlns:xlink="http://www.w3.org/1999/xlink" preserveAspectRatio="xMidYMid" width="42" height="42" viewBox="0 0 42 42">
  <defs>
    <style>

      .cls-2 {
        fill: #366593;
      }
    </style>
  </defs>
  <path d="M21.109,42.000 C9.451,42.000 -0.000,32.598 -0.000,21.000 C-0.000,9.402 9.451,-0.000 21.109,-0.000 C32.768,-0.000 42.219,9.402 42.219,21.000 C42.219,32.598 32.768,42.000 21.109,42.000 ZM20.086,12.229 C20.086,12.229 19.792,11.931 17.460,11.992 C12.558,11.767 13.033,16.609 13.033,16.609 C13.033,16.609 11.532,16.609 11.532,16.609 C11.532,16.609 11.532,19.213 11.532,19.213 C11.532,19.213 13.070,19.213 13.070,19.213 C13.070,19.213 13.070,28.446 13.070,28.446 C13.070,28.446 16.672,28.446 16.672,28.446 C16.672,28.446 16.672,19.252 16.672,19.252 C16.672,19.252 19.336,19.252 19.336,19.252 C19.336,19.252 19.336,16.648 19.336,16.648 C19.336,16.648 16.560,16.648 16.560,16.648 C16.560,16.648 16.626,15.637 16.747,15.307 C17.448,14.046 19.861,14.873 19.861,14.873 C19.861,14.873 20.086,14.873 20.086,14.873 C20.086,14.873 20.086,12.229 20.086,12.229 ZM28.679,16.333 C27.000,16.078 25.039,17.832 25.039,17.832 C25.039,17.832 25.039,12.111 25.039,12.111 C25.039,12.111 21.475,12.111 21.475,12.111 C21.475,12.111 21.475,28.446 21.475,28.446 C21.475,28.446 24.889,28.486 24.889,28.486 C24.889,28.486 25.069,27.811 25.077,27.894 C26.515,28.693 27.928,28.722 27.928,28.722 C27.928,28.722 32.831,29.011 33.219,22.488 C33.079,15.715 28.813,16.353 28.679,16.333 ZM25.077,25.763 C25.077,25.763 25.077,19.805 25.077,19.805 C25.077,19.805 26.022,19.213 26.953,19.213 C27.884,19.213 29.647,19.056 29.429,23.119 C29.211,27.182 25.077,25.763 25.077,25.763 Z" id="path-1" class="cls-2" fill-rule="evenodd"/>
</svg>
