<svg xmlns="http://www.w3.org/2000/svg" xmlns:xlink="http://www.w3.org/1999/xlink" preserveAspectRatio="xMidYMid" width="43" height="42" viewBox="0 0 43 42">
  <defs>
    <style>

      .cls-2 {
        fill: #baff00;
      }
    </style>
  </defs>
  <path d="M21.109,42.000 C9.451,42.000 -0.000,32.598 -0.000,21.000 C-0.000,9.402 9.451,-0.000 21.109,-0.000 C32.768,-0.000 42.219,9.402 42.219,21.000 C42.219,32.598 32.768,42.000 21.109,42.000 ZM18.859,23.463 C18.859,23.463 18.859,15.760 18.859,15.760 C18.859,15.760 6.000,15.760 6.000,15.760 C6.000,15.760 6.000,28.084 6.000,28.084 C6.000,28.084 8.572,28.084 8.572,28.084 C8.572,28.084 8.572,23.463 8.572,23.463 C8.572,23.463 14.817,23.463 14.817,23.463 C14.817,23.463 15.920,28.084 15.920,28.084 C15.920,28.084 19.226,28.084 19.226,28.084 C19.226,28.084 17.757,23.463 17.757,23.463 C17.757,23.463 18.859,23.463 18.859,23.463 ZM33.187,25.388 C33.187,25.388 22.900,25.388 22.900,25.388 C22.900,25.388 22.900,23.463 22.900,23.463 C22.900,23.463 32.085,23.463 32.085,23.463 C32.085,23.463 32.085,20.767 32.085,20.767 C32.085,20.767 22.900,20.767 22.900,20.767 C22.900,20.767 22.900,18.841 22.900,18.841 C22.900,18.841 33.187,18.841 33.187,18.841 C33.187,18.841 33.187,15.760 33.187,15.760 C33.187,15.760 20.329,15.760 20.329,15.760 C20.329,15.760 20.329,28.084 20.329,28.084 C20.329,28.084 33.187,28.084 33.187,28.084 C33.187,28.084 33.187,25.388 33.187,25.388 ZM37.229,18.456 C37.229,18.456 34.657,18.456 34.657,18.456 C34.657,18.456 34.657,21.152 34.657,21.152 C34.657,21.152 37.229,21.152 37.229,21.152 C37.229,21.152 37.229,18.456 37.229,18.456 ZM34.657,23.078 C34.657,23.078 34.657,25.773 34.657,25.773 C34.657,25.773 37.229,25.773 37.229,25.773 C37.229,25.773 37.229,23.078 37.229,23.078 C37.229,23.078 34.657,23.078 34.657,23.078 ZM8.572,18.841 C8.572,18.841 16.287,18.841 16.287,18.841 C16.287,18.841 16.287,20.767 16.287,20.767 C16.287,20.767 8.572,20.767 8.572,20.767 C8.572,20.767 8.572,18.841 8.572,18.841 Z" id="path-1" class="cls-2" fill-rule="evenodd"/>
</svg>
