<svg xmlns="http://www.w3.org/2000/svg" width="202.969" height="55" viewBox="0 0 202.969 55">
  <metadata><?xpacket begin="﻿" id="W5M0MpCehiHzreSzNTczkc9d"?>
<x:xmpmeta xmlns:x="adobe:ns:meta/" x:xmptk="Adobe XMP Core 5.6-c138 79.159824, 2016/09/14-01:09:01        ">
   <rdf:RDF xmlns:rdf="http://www.w3.org/1999/02/22-rdf-syntax-ns#">
      <rdf:Description rdf:about=""/>
   </rdf:RDF>
</x:xmpmeta>
                                                                                                    
                                                                                                    
                                                                                                    
                                                                                                    
                                                                                                    
                                                                                                    
                                                                                                    
                                                                                                    
                                                                                                    
                                                                                                    
                                                                                                    
                                                                                                    
                                                                                                    
                                                                                                    
                                                                                                    
                                                                                                    
                                                                                                    
                                                                                                    
                                                                                                    
                                                                                                    
                           
<?xpacket end="w"?></metadata>
<defs>
    <style>
      .cls-1 {
        fill: #fff;
        fill-rule: evenodd;
      }
    </style>
  </defs>
  <path id="Фигура_7" data-name="Фигура 7" class="cls-1" d="M896.036,358.953a1.858,1.858,0,0,1,1.851,1.857v4.658a2.582,2.582,0,0,1-2.571,2.583h0c-11.476,0-15.956-.019-27.432-0.019a1.858,1.858,0,0,1-1.851-1.856v-4.66a2.581,2.581,0,0,1,2.571-2.58h0c11.476,0,15.956.017,27.432,0.017h0Zm4.984,32.04h0.723a1.857,1.857,0,0,0,1.85-1.858v-4.609a2.581,2.581,0,0,0-2.571-2.582h0v-0.01H861.952a1.209,1.209,0,0,1-.825-0.349h0a1.236,1.236,0,0,1-.347-0.863V346.267a1.233,1.233,0,0,1,.348-0.864l0.009,0.008a1.217,1.217,0,0,1,.82-0.358H901.02v-0.009h0.723a1.858,1.858,0,0,0,1.85-1.857v-4.61A2.581,2.581,0,0,0,901.022,336H859.253a10.2,10.2,0,0,0-7.228,3.012v0.019a10.261,10.261,0,0,0-3,7.24v34.454a10.255,10.255,0,0,0,3,7.239l0.018,0.019a10.178,10.178,0,0,0,7.21,3.014H901.02Zm110.27-15.334H1008a1.413,1.413,0,0,1-1.4-1.859l1.11-4.584a3.5,3.5,0,0,1,3.2-2.58h3l3.8,0,0.14,0h3l6.79,0.006,5.98,0v0h0v0h0.77c-1.33-5.695-2.63-11.15-3.69-15.046a8.5,8.5,0,0,0-8.48-6.5h-6.84a8.5,8.5,0,0,0-8.48,6.5c-2.51,9.209-6.35,27.134-8.818,36.354a4.133,4.133,0,0,1-3.812,3.039h-6.317a2.2,2.2,0,0,1-2.237-2.971l9.537-39.472c2.5-9.522,10.7-12.195,19.337-12.525V335.99h8.42v0.034c8.64,0.33,16.83,3,19.34,12.525l9.53,39.472a2.2,2.2,0,0,1-2.23,2.971h-6.32a4.127,4.127,0,0,1-3.81-3.039c-0.88-3.265-1.92-7.62-3.02-12.3h-6.83l-1.08,0v0h-5.86l-1.08,0v0h-0.15v0l-1.63,0h-1.64v0h-3.29l-0.1,0h-0.27v0l-3.27,0-0.01,0h0Zm-75.733-.275a8.508,8.508,0,0,0,8.485,6.5h6.837a8.507,8.507,0,0,0,8.485-6.5c2.5-9.208,6.348-27.132,8.813-36.355a4.134,4.134,0,0,1,3.814-3.038h6.316a2.2,2.2,0,0,1,2.237,2.973l-9.536,39.471c-2.5,9.521-10.7,12.192-19.339,12.522v0.036h-8.416v-0.036c-8.646-.33-16.835-3-19.339-12.522l-9.537-39.471a2.2,2.2,0,0,1,2.237-2.973h6.317a4.133,4.133,0,0,1,3.813,3.038c2.465,9.223,6.311,27.147,8.813,36.355h0Z" transform="translate(-849.031 -336)"/>
</svg>
